<svg t="1718538707896" class="icon" viewBox="0 0 1024 1024" version="1.1" xmlns="http://www.w3.org/2000/svg" p-id="1295" width="200" height="200"><path d="M0 0h1024v1024H0z" fill-opacity="0" p-id="1296"></path><path d="M516.608 99.669333A416.938667 416.938667 0 0 0 183.978667 768c20.309333 26.624-43.690667 110.762667-17.066667 131.925333 23.381333 19.114667 136.533333-24.064 163.84-10.410666A416.768 416.768 0 1 0 516.608 99.669333zM359.765333 597.333333a105.301333 105.301333 0 1 1 105.130667-106.154666A104.618667 104.618667 0 0 1 358.4 598.186667z m315.392 0h-1.024a126.976 126.976 0 1 1 1.024 0z" fill="#FF5563" p-id="1297"></path><path d="M181.248 387.242667a18.602667 18.602667 0 0 1-6.826667-24.917334l5.461334-10.069333a17.066667 17.066667 0 0 1 23.381333-7.338667 18.602667 18.602667 0 0 1 6.826667 24.917334l-5.461334 10.069333a17.066667 17.066667 0 0 1-23.04 7.509333zM216.576 324.266667a19.797333 19.797333 0 0 1-3.413333-25.770667c43.178667-72.533333 126.293333-115.712 128.170666-117.077333a17.066667 17.066667 0 0 1 24.234667 4.266666 18.773333 18.773333 0 0 1-4.608 25.6 420.181333 420.181333 0 0 0-119.466667 108.885334 17.066667 17.066667 0 0 1-9.728 6.656 17.066667 17.066667 0 0 1-15.018666-2.56z" fill="#FFFFFF" p-id="1298"></path></svg>